Coordinates
version=1
nRows=49
nColumns=12
inDegrees=yes

Units are S.I. units (second, meters, Newtons, ...)
Angles are in degrees

endheader
time	SC_y	SC_z	SC_x	AC_y	AC_z	AC_x	GH_y	GH_z	GH_yy	EL_x	PS_y
       0.0              -15.65          8.998          26.41          69.22          5.388          12.91         -38.96         0.7778          145.1          68.69          128.5
   0.00702              -15.66          8.999          26.41          69.22          5.388          12.91         -38.94         0.7779          145.0           68.7          128.5
   0.01404              -15.66          8.999          26.41          69.21          5.387          12.91         -38.92         0.7779          145.0          68.71          128.5
   0.02106              -15.67            9.0          26.41          69.21          5.386          12.91          -38.9         0.7779          144.9          68.73          128.5
   0.02808              -15.67          9.001          26.41          69.21          5.386          12.91         -38.88         0.7779          144.9          68.74          128.5
    0.0351              -15.68          9.002          26.42          69.21          5.385          12.91         -38.85         0.7779          144.8          68.75          128.5
   0.04212              -15.68          9.003          26.42           69.2          5.384          12.91         -38.82         0.7779          144.7          68.77          128.5
   0.04914              -15.69          9.004          26.42           69.2          5.383          12.91         -38.79         0.7779          144.7          68.78          128.5
   0.05616              -15.69          9.005          26.42           69.2          5.382          12.91         -38.76         0.7779          144.6           68.8          128.4
   0.06318               -15.7          9.006          26.43          69.19          5.381          12.91         -38.73         0.7779          144.5          68.82          128.4
    0.0702              -15.71          9.007          26.43          69.19           5.38          12.91         -38.69          0.778          144.5          68.83          128.4
   0.07722              -15.71          9.009          26.43          69.18          5.379          12.91         -38.65          0.778          144.4          68.85          128.4
   0.08424              -15.72           9.01          26.44          69.18          5.378          12.91         -38.61          0.778          144.3          68.88          128.4
   0.09126              -15.73          9.012          26.44          69.17          5.377          12.91         -38.57          0.778          144.2           68.9          128.4
   0.09828              -15.74          9.014          26.45          69.17          5.375           12.9         -38.52          0.778          144.1          68.92          128.3
    0.1053              -15.75          9.015          26.45          69.16          5.374           12.9         -38.46          0.778          143.9          68.95          128.3
    0.1123              -15.76          9.017          26.46          69.16          5.372           12.9          -38.4         0.7781          143.8          68.98          128.3
    0.1193              -15.77           9.02          26.46          69.15           5.37           12.9         -38.34         0.7781          143.7          69.02          128.3
    0.1264              -15.79          9.022          26.47          69.14          5.368           12.9         -38.27         0.7781          143.5          69.05          128.2
    0.1334               -15.8          9.025          26.47          69.13          5.366           12.9          -38.2         0.7781          143.3          69.09          128.2
    0.1404              -15.82          9.027          26.48          69.12          5.364           12.9         -38.11         0.7782          143.2          69.13          128.2
    0.1474              -15.84          9.031          26.49          69.11          5.361           12.9         -38.02         0.7782          143.0          69.18          128.1
    0.1544              -15.86          9.034           26.5           69.1          5.358           12.9         -37.92         0.7783          142.7          69.23          128.1
    0.1615              -15.88          9.038          26.51          69.09          5.355           12.9         -37.81         0.7783          142.5          69.29          128.0
    0.1685               -15.9          9.042          26.52          69.08          5.351           12.9         -37.69         0.7783          142.2          69.35          128.0
    0.1755              -15.93          9.047          26.53          69.06          5.347           12.9         -37.55         0.7784          141.9          69.43          127.9
    0.1825              -15.96          9.052          26.54          69.04          5.343          12.89         -37.39         0.7785          141.5          69.51          127.9
    0.1895              -15.99          9.058          26.56          69.02          5.338          12.89         -37.22         0.7785          141.1           69.6          127.8
    0.1966              -16.03          9.065          26.58           69.0          5.332          12.89         -37.02         0.7786          140.7           69.7          127.7
    0.2036              -16.08          9.073           26.6          68.98          5.325          12.89         -36.79         0.7787          140.2          69.81          127.6
    0.2106              -16.13          9.082          26.62          68.95          5.318          12.89         -36.54         0.7788          139.6          69.95          127.5
    0.2176              -16.18          9.092          26.65          68.92          5.309          12.88         -36.25         0.7789          139.0           70.1          127.4
    0.2246              -16.25          9.104          26.68          68.88          5.299          12.88         -35.91          0.779          138.2          70.27          127.2
    0.2317              -16.32          9.117          26.71          68.83          5.288          12.88         -35.51         0.7792          137.3          70.48          127.1
    0.2387              -16.41          9.133          26.75          68.78          5.275          12.87         -35.05         0.7794          136.3          70.71          126.9
    0.2457              -16.52          9.152           26.8          68.72          5.259          12.87         -34.51         0.7796          135.1          70.99          126.7
    0.2527              -16.65          9.174          26.86          68.65           5.24          12.86         -33.86         0.7798          133.6          71.33          126.4
    0.2597               -16.8          9.201          26.92          68.57          5.218          12.86         -33.09         0.7801          131.9          71.73          126.1
    0.2668              -16.98          9.233          27.01          68.46           5.19          12.85         -32.15         0.7805          129.8          72.21          125.7
    0.2738               -17.2          9.272          27.11          68.33          5.157          12.84         -31.01         0.7809          127.2           72.8          125.2
    0.2808              -17.48          9.321          27.23          68.18          5.116          12.82         -29.59         0.7815          124.0          73.53          124.6
    0.2878              -17.82          9.382          27.39          67.98          5.065          12.81         -27.83         0.7822          120.1          74.44          123.9
    0.2949              -18.25          9.458          27.58          67.74            5.0          12.79         -25.62          0.783          115.1          75.58          122.9
    0.3019               -18.8          9.556          27.83          67.42          4.918          12.76         -22.79         0.7841          108.8          77.04          121.7
    0.3089               -19.5           9.68          28.15          67.02          4.814          12.73         -19.19         0.7855          100.6           78.9          120.2
    0.3159               -20.4           9.84          28.56          66.51          4.679          12.69         -14.55         0.7873          90.24          81.29          118.3
    0.3229              -21.55          10.04          29.08          65.85          4.507          12.63         -8.637         0.7896          76.95          84.35          115.8
      0.33               -23.0           10.3          29.74          65.03          4.291          12.56         -1.197         0.7925          60.24          88.19          112.7
     0.337              -24.76          10.61          30.54          64.02          4.028          12.48          7.869         0.7961          39.88          92.87          108.9
